<svg xmlns="http://www.w3.org/2000/svg" viewBox="0 0 32 32" width="32" height="32">
  <!-- Background circle -->
  <circle cx="16" cy="16" r="15" fill="#2c3e50"/>
  
  <!-- Balcony railing -->
  <rect x="6" y="14" width="20" height="2" fill="#3498db"/>
  <rect x="6" y="24" width="20" height="2" fill="#3498db"/>
  
  <!-- Vertical bars -->
  <rect x="7" y="14" width="2" height="12" fill="#3498db"/>
  <rect x="12" y="14" width="2" height="12" fill="#3498db"/>
  <rect x="18" y="14" width="2" height="12" fill="#3498db"/>
  <rect x="23" y="14" width="2" height="12" fill="#3498db"/>
  
  <!-- Net pattern -->
  <g stroke="#ecf0f1" stroke-width="0.5" fill="none" opacity="0.7">
    <!-- Horizontal lines -->
    <line x1="8" y1="17" x2="24" y2="17"/>
    <line x1="8" y1="20" x2="24" y2="20"/>
    <line x1="8" y1="23" x2="24" y2="23"/>
    
    <!-- Diagonal lines -->
    <line x1="8" y1="16" x2="14" y2="24"/>
    <line x1="14" y1="16" x2="20" y2="24"/>
    <line x1="20" y1="16" x2="26" y2="24"/>
    <line x1="14" y1="16" x2="8" y2="24"/>
    <line x1="20" y1="16" x2="14" y2="24"/>
    <line x1="26" y1="16" x2="20" y2="24"/>
  </g>
  
  <!-- Roof/top decoration -->
  <path d="M4 14 L16 6 L28 14" stroke="#e74c3c" stroke-width="2" fill="none" stroke-linecap="round"/>
</svg>